<mxfile host="Electron" modified="2024-05-29T15:54:23.372Z" agent="Mozilla/5.0 (Windows NT 10.0; Win64; x64) AppleWebKit/537.36 (KHTML, like Gecko) draw.io/24.4.8 Chrome/124.0.6367.207 Electron/30.0.6 Safari/537.36" etag="OcNbSyBbNZM1BLkgF0oG" version="24.4.8" type="device">
  <diagram name="Page-1" id="YG1d8-Xm8BB48Zw3g8DO">
    <mxGraphModel dx="917" dy="825" grid="1" gridSize="10" guides="1" tooltips="1" connect="1" arrows="1" fold="1" page="1" pageScale="1" pageWidth="850" pageHeight="1100" math="0" shadow="0">
      <root>
        <mxCell id="0" />
        <mxCell id="1" parent="0" />
        <mxCell id="4G6BOA-11peGS--k3YC--1" value="Form" style="rounded=0;whiteSpace=wrap;html=1;" parent="1" vertex="1">
          <mxGeometry x="400" y="80" width="80" height="100" as="geometry" />
        </mxCell>
        <mxCell id="4G6BOA-11peGS--k3YC--2" value="TextField" style="rounded=0;whiteSpace=wrap;html=1;" parent="1" vertex="1">
          <mxGeometry x="570" y="80" width="120" height="60" as="geometry" />
        </mxCell>
        <mxCell id="4G6BOA-11peGS--k3YC--3" value="Model" style="shape=cylinder3;whiteSpace=wrap;html=1;boundedLbl=1;backgroundOutline=1;size=15;" parent="1" vertex="1">
          <mxGeometry x="160" y="90" width="130" height="80" as="geometry" />
        </mxCell>
        <mxCell id="4G6BOA-11peGS--k3YC--4" value="" style="endArrow=classic;html=1;rounded=0;" parent="1" edge="1">
          <mxGeometry width="50" height="50" relative="1" as="geometry">
            <mxPoint x="300" y="100" as="sourcePoint" />
            <mxPoint x="370" y="100" as="targetPoint" />
          </mxGeometry>
        </mxCell>
        <mxCell id="4G6BOA-11peGS--k3YC--5" value="select" style="edgeLabel;html=1;align=center;verticalAlign=middle;resizable=0;points=[];" parent="4G6BOA-11peGS--k3YC--4" vertex="1" connectable="0">
          <mxGeometry x="-0.2217" y="-1" relative="1" as="geometry">
            <mxPoint x="3" as="offset" />
          </mxGeometry>
        </mxCell>
        <mxCell id="4G6BOA-11peGS--k3YC--6" value="" style="endArrow=classic;html=1;rounded=0;" parent="1" edge="1">
          <mxGeometry width="50" height="50" relative="1" as="geometry">
            <mxPoint x="490" y="100" as="sourcePoint" />
            <mxPoint x="560" y="100" as="targetPoint" />
          </mxGeometry>
        </mxCell>
        <mxCell id="4G6BOA-11peGS--k3YC--7" value="show" style="edgeLabel;html=1;align=center;verticalAlign=middle;resizable=0;points=[];" parent="4G6BOA-11peGS--k3YC--6" vertex="1" connectable="0">
          <mxGeometry x="-0.2217" y="-1" relative="1" as="geometry">
            <mxPoint x="3" as="offset" />
          </mxGeometry>
        </mxCell>
        <mxCell id="4G6BOA-11peGS--k3YC--8" value="" style="endArrow=classic;html=1;rounded=0;" parent="1" edge="1">
          <mxGeometry width="50" height="50" relative="1" as="geometry">
            <mxPoint x="560" y="130" as="sourcePoint" />
            <mxPoint x="490" y="130" as="targetPoint" />
          </mxGeometry>
        </mxCell>
        <mxCell id="4G6BOA-11peGS--k3YC--9" value="changed" style="edgeLabel;html=1;align=center;verticalAlign=middle;resizable=0;points=[];" parent="4G6BOA-11peGS--k3YC--8" vertex="1" connectable="0">
          <mxGeometry x="0.1554" relative="1" as="geometry">
            <mxPoint x="10" as="offset" />
          </mxGeometry>
        </mxCell>
        <mxCell id="4G6BOA-11peGS--k3YC--10" value="" style="endArrow=classic;html=1;rounded=0;" parent="1" edge="1">
          <mxGeometry width="50" height="50" relative="1" as="geometry">
            <mxPoint x="375" y="150" as="sourcePoint" />
            <mxPoint x="305" y="150" as="targetPoint" />
          </mxGeometry>
        </mxCell>
        <mxCell id="4G6BOA-11peGS--k3YC--11" value="changed" style="edgeLabel;html=1;align=center;verticalAlign=middle;resizable=0;points=[];" parent="4G6BOA-11peGS--k3YC--10" vertex="1" connectable="0">
          <mxGeometry x="0.1554" relative="1" as="geometry">
            <mxPoint x="10" as="offset" />
          </mxGeometry>
        </mxCell>
      </root>
    </mxGraphModel>
  </diagram>
</mxfile>
